<?xml version="1.0" encoding="UTF-8" standalone="no"?>
<!-- Created with Inkscape (http://www.inkscape.org/) -->

<svg
   width="210mm"
   height="297mm"
   viewBox="0 0 210 297"
   version="1.1"
   id="svg5"
   inkscape:version="1.1 (c68e22c387, 2021-05-23)"
   sodipodi:docname="1_apple_3_bites.svg"
   xmlns:inkscape="http://www.inkscape.org/namespaces/inkscape"
   xmlns:sodipodi="http://sodipodi.sourceforge.net/DTD/sodipodi-0.dtd"
   xmlns="http://www.w3.org/2000/svg"
   xmlns:svg="http://www.w3.org/2000/svg">
  <sodipodi:namedview
     id="namedview7"
     pagecolor="#ffffff"
     bordercolor="#666666"
     borderopacity="1.0"
     inkscape:pageshadow="2"
     inkscape:pageopacity="0.0"
     inkscape:pagecheckerboard="0"
     inkscape:document-units="mm"
     showgrid="false"
     inkscape:zoom="0.53543895"
     inkscape:cx="64.433116"
     inkscape:cy="640.59591"
     inkscape:window-width="1920"
     inkscape:window-height="1010"
     inkscape:window-x="-6"
     inkscape:window-y="-6"
     inkscape:window-maximized="1"
     inkscape:current-layer="layer1" />
  <defs
     id="defs2" />
  <g
     inkscape:label="Layer 1"
     inkscape:groupmode="layer"
     id="layer1">
    <rect
       style="fill:#f6f4ea;fill-opacity:1;stroke:none;stroke-width:0.22561;stroke-dasharray:1.80488, 0.90244;stop-color:#000000"
       id="rect950"
       width="179.33342"
       height="232.07855"
       x="17.295"
       y="20.695866"
       inkscape:export-filename="C:\Users\lsl\rect950.png"
       inkscape:export-xdpi="72.57"
       inkscape:export-ydpi="72.57" />
    <path
       style="fill:none;stroke:#000000;stroke-width:0.264583px;stroke-linecap:butt;stroke-linejoin:miter;stroke-opacity:1"
       d="m 68.068175,88.080965 c -0.21696,16.730985 18.29396,33.601365 22.35996,34.342925 3.49132,0.63675 7.16123,-1.29696 8.64751,-1.35889 2.964835,-0.12354 5.929705,1.60596 7.165075,1.60596 1.23534,0 3.08837,-1.35889 4.69434,-1.35889 1.60597,0 2.59424,0.74121 4.44728,0.74121 1.85303,0 5.98188,1.58425 11.98297,-15.19489 5.53423,-15.473773 12.21297,-28.538346 -5.5591,-42.00214 -12.77321,-9.676749 -20.39464,0.867849 -24.830665,0.123537 -4.02234,-0.6749 -5.43557,-2.470716 -11.61238,-1.976573 -6.17677,0.494144 -17.07803,8.346768 -17.29499,25.077751 z"
       id="path869"
       sodipodi:nodetypes="zsssssssssz" />
    <path
       style="fill:none;stroke:#000000;stroke-width:0.264583px;stroke-linecap:butt;stroke-linejoin:miter;stroke-opacity:1"
       d="m 73.730805,183.10487 c -0.21696,16.73098 18.29396,33.60137 22.35996,34.34293 3.49132,0.63674 7.161225,-1.29697 8.647505,-1.3589 2.96484,-0.12353 5.92971,1.60597 7.16508,1.60597 1.23534,0 3.08837,-1.3589 4.69434,-1.3589 1.60597,0 2.59424,0.74122 4.44728,0.74122 1.85303,0 5.98188,1.58424 11.98297,-15.19489 5.53423,-15.47378 12.21297,-28.53835 -5.5591,-42.00215 -12.77321,-9.67675 -20.39464,0.86785 -24.83067,0.12354 -4.022335,-0.6749 -5.435565,-2.47072 -11.612375,-1.97657 -6.17677,0.49414 -17.07803,8.34677 -17.29499,25.07775 z"
       id="path869-0"
       sodipodi:nodetypes="zsssssssssz" />
    <path
       id="path869-9"
       style="fill:none;stroke:#000000;stroke-width:0.264583;stroke-linecap:butt;stroke-linejoin:miter;stroke-miterlimit:4;stroke-dasharray:2.11666, 1.05833;stroke-dashoffset:0;stroke-opacity:1"
       d="m 92.001536,63.56026 c -0.285591,1.77687 -0.433467,3.573147 -0.44233,5.372798 0.333031,7.939085 2.419932,14.622373 6.739625,20.587891"
       sodipodi:nodetypes="ccc" />
    <path
       id="path869-0-3"
       style="fill:none;stroke:#000000;stroke-width:0.264583;stroke-linecap:butt;stroke-linejoin:miter;stroke-miterlimit:4;stroke-dasharray:2.11666, 1.05833;stroke-dashoffset:0;stroke-opacity:1"
       d="m 93.146177,178.77545 a 34.941176,34.941176 0 0 0 -19.38229,5.88233 c 0.882041,16.20657 18.38661,32.07163 22.326811,32.79024 3.49131,0.63674 7.161262,-1.29716 8.647532,-1.35909 2.96485,-0.12353 5.92958,1.60611 7.16495,1.60611 1.23534,0 3.08832,-1.35909 4.69429,-1.35909 1.60597,0 2.59421,0.74103 4.44727,0.74103 1.28757,0 3.67509,0.75851 7.02488,-4.40386 A 34.941176,34.941176 0 0 0 93.146177,178.77545 Z" />
    <path
       id="path869-4"
       style="fill:none;stroke:#000000;stroke-width:0.264583;stroke-linecap:butt;stroke-linejoin:miter;stroke-miterlimit:4;stroke-dasharray:2.11666, 1.05833;stroke-dashoffset:0;stroke-opacity:1"
       d="m 120.68713,81.379328 a 34.941176,34.941176 0 0 0 -34.941534,34.941022 34.941176,34.941176 0 0 0 0.185526,3.38739 c 1.969955,1.58323 3.592036,2.55109 4.496884,2.71611 3.49131,0.63675 7.161239,-1.29716 8.647536,-1.35909 2.964818,-0.12354 5.929548,1.6061 7.164918,1.6061 1.23534,0 3.08885,-1.35857 4.69482,-1.35857 1.60597,0 2.59421,0.74104 4.44727,0.74104 1.85301,0 5.98162,1.58419 11.98272,-15.19494 2.94989,-8.24789 6.2239,-15.811163 5.94796,-23.115383 a 34.941176,34.941176 0 0 0 -12.6261,-2.363679 z" />
    <path
       id="path869-0-2"
       style="fill:none;stroke:#000000;stroke-width:0.264583;stroke-linecap:butt;stroke-linejoin:miter;stroke-miterlimit:4;stroke-dasharray:2.11666, 1.05833;stroke-dashoffset:0;stroke-opacity:1"
       d="m 109.74206,182.97106 c 3.7415,-5.69118 5.73812,-12.35176 5.74434,-19.16266 -0.0289,-2.64526 -0.35811,-5.27868 -0.98131,-7.84965"
       sodipodi:nodetypes="ccc" />
    <path
       id="path2603"
       style="fill:none;stroke:#000000;stroke-width:0.264583px;stroke-linecap:butt;stroke-linejoin:miter;stroke-opacity:1"
       d="m 110.44434,55.002643 c -0.74482,-0.02365 -0.74467,1.206128 -0.74467,1.206128 l -15.441926,8.083228 c 0.817034,0.264772 1.679893,0.513689 2.717668,0.687814 0.121444,0.02038 0.245771,0.03104 0.372057,0.03514 l 14.205351,-7.694621 c 0,0 0.37078,-1.729494 -0.74105,-2.223637 -0.13898,-0.06177 -0.26101,-0.09067 -0.36743,-0.09405 z" />
    <path
       id="path2789"
       style="fill:none;stroke:#000000;stroke-width:0.264583px;stroke-linecap:butt;stroke-linejoin:miter;stroke-opacity:1"
       d="m 92.763774,152.80029 c -0.0435,0.003 -0.150018,0.11716 -0.379306,0.47749 -0.611479,0.96088 0.26199,1.13585 0.26199,1.13585 l 9.951352,5.58209 c 0.0139,0.002 0.0263,0.005 0.0403,0.008 0.86818,0.14567 1.86047,-0.14341 2.98741,-0.62632 l -12.891713,-6.27404 c 0,0 0.102473,-0.30709 0.02998,-0.30282 z" />
    <text
       xml:space="preserve"
       style="font-style:normal;font-weight:normal;font-size:10.5833px;line-height:1.25;font-family:sans-serif;fill:#000000;fill-opacity:1;stroke:none;stroke-width:0.264583"
       x="106.98193"
       y="106.48779"
       id="text8121"><tspan
         sodipodi:role="line"
         id="tspan8119"
         style="stroke-width:0.264583"
         x="106.98193"
         y="106.48779">1</tspan></text>
    <text
       xml:space="preserve"
       style="font-style:normal;font-weight:normal;font-size:10.5833px;line-height:1.25;font-family:sans-serif;fill:#000000;fill-opacity:1;stroke:none;stroke-width:0.264583"
       x="105.00536"
       y="73.380219"
       id="text12349"><tspan
         sodipodi:role="line"
         id="tspan12347"
         style="stroke-width:0.264583"
         x="105.00536"
         y="73.380219">2</tspan></text>
    <text
       xml:space="preserve"
       style="font-style:normal;font-weight:normal;font-size:10.5833px;line-height:1.25;font-family:sans-serif;fill:#000000;fill-opacity:1;stroke:none;stroke-width:0.264583"
       x="79.062859"
       y="91.663506"
       id="text14299"><tspan
         sodipodi:role="line"
         id="tspan14297"
         style="stroke-width:0.264583"
         x="79.062859"
         y="91.663506">3</tspan></text>
    <text
       xml:space="preserve"
       style="font-style:normal;font-weight:normal;font-size:10.5833px;line-height:1.25;font-family:sans-serif;fill:#000000;fill-opacity:1;stroke:none;stroke-width:0.264583"
       x="98.437523"
       y="201.58455"
       id="text8121-4"><tspan
         sodipodi:role="line"
         id="tspan8119-3"
         style="stroke-width:0.264583"
         x="98.437523"
         y="201.58455">1</tspan></text>
    <text
       xml:space="preserve"
       style="font-style:normal;font-weight:normal;font-size:10.5833px;line-height:1.25;font-family:sans-serif;fill:#000000;fill-opacity:1;stroke:none;stroke-width:0.264583"
       x="93.743187"
       y="173.17134"
       id="text12349-9"><tspan
         sodipodi:role="line"
         id="tspan12347-8"
         style="stroke-width:0.264583"
         x="93.743187"
         y="173.17134">2</tspan></text>
    <text
       xml:space="preserve"
       style="font-style:normal;font-weight:normal;font-size:10.5833px;line-height:1.25;font-family:sans-serif;fill:#000000;fill-opacity:1;stroke:none;stroke-width:0.264583"
       x="121.90932"
       y="182.0659"
       id="text14299-2"><tspan
         sodipodi:role="line"
         id="tspan14297-9"
         style="stroke-width:0.264583"
         x="121.90932"
         y="182.0659">3</tspan></text>
  </g>
</svg>
